# xmcd CD database file
#
# Track frame offsets:
#	150
#	20372
#	38194
#	55791
#	80220
#	100897
#	122567
#	141994
#	175231
#	193080
#	224202
#	239987
#	258619
#	278193
#
# Disc length: 4060 seconds
#
# Revision: 1
# Processed by: cddbd v1.5.2PL0 Copyright (c) Steve Scherf et al.
# Submitted via: CDex 1.70beta2
#
DISCID=e00fda0e
DTITLE=Dead Or Alive - Star Box
DYEAR=1900
DGENRE=
TTITLE0=You Spin Me Around(Like A Record)
TTITLE1=In Too Deep
TTITLE2=Lover Come Back To Me
TTITLE3=My Heart Goes Bang
TTITLE4=Brand New Lover
TTITLE5=I'll Save You All My Kisses
TTITLE6=Son Of A Gun
TTITLE7=Something In My House
TTITLE8=Hooked On Love
TTITLE9=Turn Around And Count 2 Ten
TTITLE10=Give It Back(That Love Is Mine)
TTITLE11=Come Home(With Me Baby)
TTITLE12=Baby Don't Say Goodbye
TTITLE13=Your Sweetness(Is Your Weakness)
EXTD=
EXTT0=
EXTT1=
EXTT2=
EXTT3=
EXTT4=
EXTT5=
EXTT6=
EXTT7=
EXTT8=
EXTT9=
EXTT10=
EXTT11=
EXTT12=
EXTT13=
PLAYORDER=
